<svg xmlns="http://www.w3.org/2000/svg" version="1.1" xmlns:xlink="http://www.w3.org/1999/xlink" xmlns:svgjs="http://svgjs.dev/svgjs" width="1000" height="131" viewBox="0 0 1000 131"><g transform="matrix(1,0,0,1,-0.6060602890202063,-0.505258998289932)"><svg viewBox="0 0 396 52" data-background-color="#89939e" preserveAspectRatio="xMidYMid meet" height="131" width="1000" xmlns="http://www.w3.org/2000/svg" xmlns:xlink="http://www.w3.org/1999/xlink"><g id="tight-bounds" transform="matrix(1,0,0,1,0.23999987445199622,0.200560823748674)"><svg viewBox="0 0 395.52 51.59887835250267" height="51.59887835250267" width="395.52"><g><svg viewBox="0 0 564.5146352419539 73.64563610451304" height="51.59887835250267" width="395.52"><g><rect width="6.10005921120684" height="73.64563610451304" x="146.92583464015325" y="0" fill="#000000" opacity="1" stroke-width="0" stroke="transparent" fill-opacity="1" class="rect-o-0" data-fill-palette-color="primary" rx="1%" id="o-0" data-palette-color="#000000"></rect></g><g transform="matrix(1,0,0,1,168.99463524195392,0.18319809976246404)"><svg viewBox="0 0 395.52 73.27923990498812" height="73.27923990498812" width="395.52"><g><svg viewBox="0 0 395.52 73.27923990498812" height="73.27923990498812" width="395.52"><g><svg viewBox="0 0 395.52 73.27923990498812" height="73.27923990498812" width="395.52"><g transform="matrix(1,0,0,1,0,0)"><svg width="395.52" viewBox="1.9499998092651367 -35.500003814697266 210.5 36.000003814697266" height="73.27923990498812" data-palette-color="#000000"><svg></svg><g class="undefined-text-0" data-fill-palette-color="primary" id="text-0"><path xmlns="http://www.w3.org/2000/svg" d="M14.8 0.5v0c-2.4 0-4.533-0.333-6.4-1-1.867-0.667-3.65-1.767-5.35-3.3v0c-0.367-0.267-0.64-0.593-0.82-0.98-0.187-0.38-0.28-0.77-0.28-1.17v0c0-0.633 0.233-1.2 0.7-1.7 0.467-0.5 1.05-0.75 1.75-0.75v0c0.533 0 1.033 0.183 1.5 0.55v0c1.267 1.167 2.593 2.05 3.98 2.65 1.38 0.6 3.003 0.9 4.87 0.9v0c1.333 0 2.56-0.217 3.68-0.65 1.113-0.433 2.003-1.017 2.67-1.75 0.667-0.733 1-1.583 1-2.55v0c0-1.2-0.34-2.193-1.02-2.98-0.687-0.78-1.67-1.43-2.95-1.95-1.287-0.513-2.83-0.953-4.63-1.32v0c-1.667-0.3-3.157-0.717-4.47-1.25-1.32-0.533-2.447-1.21-3.38-2.03-0.933-0.813-1.65-1.787-2.15-2.92-0.5-1.133-0.75-2.45-0.75-3.95v0c0-2.033 0.533-3.783 1.6-5.25 1.067-1.467 2.517-2.6 4.35-3.4 1.833-0.8 3.9-1.2 6.2-1.2v0c2.1 0 4.067 0.327 5.9 0.98 1.833 0.647 3.317 1.52 4.45 2.62v0c0.8 0.7 1.2 1.45 1.2 2.25v0c0 0.6-0.24 1.157-0.72 1.67-0.487 0.52-1.047 0.78-1.68 0.78v0c-0.467 0-0.867-0.133-1.2-0.4v0c-0.533-0.567-1.25-1.077-2.15-1.53-0.9-0.447-1.86-0.82-2.88-1.12-1.013-0.3-1.987-0.45-2.92-0.45v0c-1.5 0-2.783 0.207-3.85 0.62-1.067 0.42-1.883 0.987-2.45 1.7-0.567 0.72-0.85 1.563-0.85 2.53v0c0 1.133 0.323 2.067 0.97 2.8 0.653 0.733 1.563 1.323 2.73 1.77 1.167 0.453 2.5 0.863 4 1.23v0c1.833 0.4 3.477 0.85 4.93 1.35 1.447 0.5 2.67 1.14 3.67 1.92 1 0.787 1.767 1.763 2.3 2.93 0.533 1.167 0.8 2.617 0.8 4.35v0c0 2-0.567 3.75-1.7 5.25-1.133 1.5-2.623 2.667-4.47 3.5-1.853 0.833-3.913 1.25-6.18 1.25zM38.55-32.45v29.9c-0.033 0.733-0.307 1.34-0.82 1.82-0.52 0.487-1.13 0.73-1.83 0.73v0c-0.767 0-1.393-0.243-1.88-0.73-0.48-0.48-0.72-1.087-0.72-1.82v0-29.9c0-0.733 0.25-1.34 0.75-1.82 0.5-0.487 1.15-0.73 1.95-0.73v0c0.667 0 1.257 0.243 1.77 0.73 0.52 0.48 0.78 1.087 0.78 1.82zM71.5-33v0c0.733 0.367 1.16 0.933 1.28 1.7 0.113 0.767-0.08 1.467-0.58 2.1v0c-0.367 0.5-0.84 0.783-1.42 0.85-0.587 0.067-1.163-0.05-1.73-0.35v0c-0.967-0.5-1.983-0.9-3.05-1.2-1.067-0.3-2.2-0.45-3.4-0.45v0c-1.9 0-3.607 0.307-5.12 0.92-1.52 0.62-2.83 1.503-3.93 2.65-1.1 1.153-1.94 2.513-2.52 4.08-0.587 1.567-0.88 3.3-0.88 5.2v0c0 2.1 0.317 3.957 0.95 5.57 0.633 1.62 1.51 2.987 2.63 4.1 1.113 1.12 2.43 1.953 3.95 2.5 1.513 0.553 3.153 0.83 4.92 0.83v0c1.133 0 2.243-0.133 3.33-0.4 1.08-0.267 2.103-0.667 3.07-1.2v0c0.6-0.3 1.193-0.41 1.78-0.33 0.58 0.087 1.053 0.38 1.42 0.88v0c0.567 0.7 0.777 1.407 0.63 2.12-0.153 0.72-0.58 1.263-1.28 1.63v0c-0.833 0.467-1.75 0.867-2.75 1.2-1 0.333-2.017 0.6-3.05 0.8-1.033 0.2-2.083 0.3-3.15 0.3v0c-2.4 0-4.667-0.4-6.8-1.2-2.133-0.8-4.033-1.967-5.7-3.5-1.667-1.533-2.973-3.417-3.92-5.65-0.953-2.233-1.43-4.783-1.43-7.65v0c0-2.567 0.443-4.943 1.33-7.13 0.88-2.18 2.13-4.063 3.75-5.65 1.613-1.58 3.503-2.813 5.67-3.7 2.167-0.88 4.533-1.32 7.1-1.32v0c1.6 0 3.16 0.2 4.68 0.6 1.513 0.4 2.92 0.967 4.22 1.7zM83.7-32.45v29.9c-0.033 0.733-0.307 1.34-0.82 1.82-0.52 0.487-1.13 0.73-1.83 0.73v0c-0.767 0-1.39-0.243-1.87-0.73-0.487-0.48-0.73-1.087-0.73-1.82v0-29.9c0-0.733 0.25-1.34 0.75-1.82 0.5-0.487 1.15-0.73 1.95-0.73v0c0.667 0 1.26 0.243 1.78 0.73 0.513 0.48 0.77 1.087 0.77 1.82zM96-4.9h15.15c0.7 0 1.29 0.233 1.77 0.7 0.487 0.467 0.73 1.05 0.73 1.75v0c0 0.7-0.243 1.283-0.73 1.75-0.48 0.467-1.07 0.7-1.77 0.7v0h-16.8c-0.733 0-1.34-0.243-1.82-0.73-0.487-0.48-0.73-1.087-0.73-1.82v0-29.9c0-0.733 0.25-1.34 0.75-1.82 0.5-0.487 1.15-0.73 1.95-0.73v0c0.667 0 1.26 0.243 1.78 0.73 0.513 0.48 0.77 1.087 0.77 1.82v0 28.4zM150.8-17.5v0c0 2.533-0.417 4.89-1.25 7.07-0.833 2.187-2.007 4.097-3.52 5.73-1.52 1.633-3.313 2.907-5.38 3.82-2.067 0.92-4.333 1.38-6.8 1.38v0c-2.433 0-4.683-0.46-6.75-1.38-2.067-0.913-3.86-2.187-5.38-3.82-1.513-1.633-2.68-3.543-3.5-5.73-0.813-2.18-1.22-4.537-1.22-7.07v0c0-2.533 0.407-4.893 1.22-7.08 0.82-2.18 1.987-4.087 3.5-5.72 1.52-1.633 3.313-2.91 5.38-3.83 2.067-0.913 4.317-1.37 6.75-1.37v0c2.467 0 4.733 0.457 6.8 1.37 2.067 0.92 3.86 2.197 5.38 3.83 1.513 1.633 2.687 3.54 3.52 5.72 0.833 2.187 1.25 4.547 1.25 7.08zM145.4-17.5v0c0-2.467-0.49-4.683-1.47-6.65-0.987-1.967-2.347-3.517-4.08-4.65-1.733-1.133-3.733-1.7-6-1.7v0c-2.233 0-4.217 0.567-5.95 1.7-1.733 1.133-3.083 2.673-4.05 4.62-0.967 1.953-1.45 4.18-1.45 6.68v0c0 2.467 0.483 4.683 1.45 6.65 0.967 1.967 2.317 3.517 4.05 4.65 1.733 1.133 3.717 1.7 5.95 1.7v0c2.267 0 4.267-0.567 6-1.7 1.733-1.133 3.093-2.683 4.08-4.65 0.98-1.967 1.47-4.183 1.47-6.65zM181.9-35.1v0c0.7 0 1.3 0.233 1.8 0.7 0.5 0.467 0.75 1.033 0.75 1.7v0c0 0.367-0.083 0.75-0.25 1.15v0l-12.65 29.9c-0.267 0.567-0.627 0.983-1.08 1.25-0.447 0.267-0.903 0.4-1.37 0.4v0c-0.467-0.033-0.907-0.183-1.32-0.45-0.42-0.267-0.747-0.65-0.98-1.15v0l-12.65-29.95c-0.067-0.167-0.117-0.343-0.15-0.53-0.033-0.18-0.05-0.37-0.05-0.57v0c0-0.767 0.283-1.367 0.85-1.8 0.567-0.433 1.117-0.65 1.65-0.65v0c1.067 0 1.85 0.55 2.35 1.65v0l11.45 27.15h-1.45l10.8-27.2c0.467-1.067 1.233-1.6 2.3-1.6zM192.65-35v0h17.3c0.7 0 1.293 0.233 1.78 0.7 0.48 0.467 0.72 1.05 0.72 1.75v0c0 0.7-0.24 1.267-0.72 1.7-0.487 0.433-1.08 0.65-1.78 0.65v0h-15.1l0.5-0.85v11.2l-0.45-0.5h12.8c0.7 0 1.293 0.233 1.78 0.7 0.48 0.467 0.72 1.067 0.72 1.8v0c0 0.7-0.24 1.267-0.72 1.7-0.487 0.433-1.08 0.65-1.78 0.65v0h-12.7l0.35-0.45v11.55l-0.35-0.4h14.95c0.7 0 1.293 0.24 1.78 0.72 0.48 0.487 0.72 1.047 0.72 1.68v0c0 0.7-0.24 1.273-0.72 1.72-0.487 0.453-1.08 0.68-1.78 0.68v0h-17.3c-0.7 0-1.3-0.243-1.8-0.73-0.5-0.48-0.75-1.087-0.75-1.82v0-29.9c0-0.733 0.25-1.34 0.75-1.82 0.5-0.487 1.1-0.73 1.8-0.73z" fill="#000000" fill-rule="nonzero" stroke="none" stroke-width="1" stroke-linecap="butt" stroke-linejoin="miter" stroke-miterlimit="10" stroke-dasharray="" stroke-dashoffset="0" font-family="none" font-weight="none" font-size="none" text-anchor="none" style="mix-blend-mode: normal" data-fill-palette-color="primary" opacity="1"></path></g></svg></g></svg></g></svg></g></svg></g><g transform="matrix(1,0,0,1,0,0.18319809976246404)"><svg viewBox="0 0 130.95709324955942 73.27923990498812" height="73.27923990498812" width="130.95709324955942"><g><svg xmlns="http://www.w3.org/2000/svg" xmlns:xlink="http://www.w3.org/1999/xlink" xml:space="preserve" version="1.1" style="shape-rendering:geometricPrecision;text-rendering:geometricPrecision;image-rendering:optimizeQuality;" viewBox="0 0 277 155" x="0" y="0" fill-rule="evenodd" clip-rule="evenodd" height="73.27923990498812" width="130.95709324955942" class="icon-icon-0" data-fill-palette-color="accent" id="icon-0"><g fill="#000000" data-fill-palette-color="accent"><path class="" d="M148 99c0 0 12 4 15 9 3 7 13 9 15 10 2 1 11 4 11 4 0 0-17-1-22-5-5-5-9-11-11-12-1 0-2-2-8-5-5-2-15-8-15-8 5 2 10 4 15 7z m-148 49c10 0 22-3 33-3 9 1 17 5 27 3 1 0 3-1 5-1 3 0 6-1 9-1 2 0 5 0 8 0-3 0-21 3-15 4 6 0-13 5-14 5 21 0 54-9 79-8 5 1 20 4 26 4-18-7 10-4 19-4 15 0 27 1 40 1 10 2 17-2 27-3 11 0 23 3 33 3-8-2-11-7-16-6-3 0-4-2-5-4-1-1-2-2-4-1-1 0-1 1-2 1 0 0 0 0 0 0-1 0-1-1-2 0-1 0-1 1-2 0 0 0-1 0-2 0 0 0 0 0 0-1-1 0-1 0-1 0-1 1-1 1-2 0 0 0 0-2-1-2-1 0-1 2-2 2-1-1 0-3-2-3 0 0-1 0-1 1l-2-2c0 0 0-1-1-1-22-18-47-38-54-41-5-1-23-13-23-13-5-2-10 3-16 6-6 6-10 6-13 9-1 0-10 0-16 4-3 2-7 5-8 5 0 0 5-2 7-1 3 2 8 3 8 5 0 3 4 6 6 8 4 4 13 10 13 10 0 0-16-10-18-12-1-3-6-7-6-7-1-1-1-2-2-1-3 0-8 0-10 1-3 2-2 1-6 2-4 1-7 3-10 5-5 4-10 8-15 11 0 0 14-13 14-13 1 0 14-6 16-7 3-2 8-5 9-7 1-1 4-2 7-2 0 0 8-2 10-3 2-1 6-3 8-3 0-1 1-1 1-1-1-1-2 0-3-1-12-3-11-9-18-12 0 0-13-2-18 3-19 17-15 26-40 35-11 8-19 17-27 26l-1 0c-5-3-6-1-8 0-1 1-2 0-4 0-5-1-7 8-15 10z m211-9c0 0 0 0-1-1 0 0 0 0 0 0 0 0 1 0 1 1z" fill="#000000" data-fill-palette-color="accent"></path><path class="" d="M201 0c8 0 14 5 16 12 24-6 29 33 4 33-5 0-10-2-13-6-5 9-16 14-26 10-3 13-19 18-29 9-1 1-3 2-5 2-6 14-26 6-19-8-8-12 1-29 17-28-1-21 25-29 38-13 0-1 1-1 2-1 2-6 8-10 15-10z" fill="#000000" data-fill-palette-color="accent"></path><circle class="" cx="135" cy="76" r="5.0" fill="#000000" data-fill-palette-color="accent"></circle><circle class="" cx="122" cy="67" r="2.0" fill="#000000" data-fill-palette-color="accent"></circle><circle class="" cx="148" cy="72" r="3.0" fill="#000000" data-fill-palette-color="accent"></circle><circle class="" cx="125" cy="75" r="1.0" fill="#000000" data-fill-palette-color="accent"></circle><circle class="" cx="168" cy="77" r="1.0" fill="#000000" data-fill-palette-color="accent"></circle><circle class="" cx="162" cy="68" r="2.0" fill="#000000" data-fill-palette-color="accent"></circle><circle class="" cx="128" cy="67" r="1.0" fill="#000000" data-fill-palette-color="accent"></circle></g></svg></g></svg></g></svg></g><defs></defs></svg><rect width="395.52" height="51.59887835250267" fill="none" stroke="none" visibility="hidden"></rect></g></svg></g></svg>